<svg width="24" height="24" viewBox="0 0 24 24" fill="none" xmlns="http://www.w3.org/2000/svg">
<path d="M3.99997 10L3.64597 10.354L3.29297 10L3.64597 9.646L3.99997 10ZM20.5 18C20.5 18.1326 20.4473 18.2598 20.3535 18.3535C20.2598 18.4473 20.1326 18.5 20 18.5C19.8674 18.5 19.7402 18.4473 19.6464 18.3535C19.5526 18.2598 19.5 18.1326 19.5 18H20.5ZM8.64597 15.354L3.64597 10.354L4.35397 9.646L9.35397 14.646L8.64597 15.354ZM3.64597 9.646L8.64597 4.646L9.35397 5.354L4.35397 10.354L3.64597 9.646ZM3.99997 9.5H14V10.5H3.99997V9.5ZM20.5 16V18H19.5V16H20.5ZM14 9.5C15.7239 9.5 17.3772 10.1848 18.5962 11.4038C19.8151 12.6228 20.5 14.2761 20.5 16H19.5C19.5 14.5413 18.9205 13.1424 17.8891 12.1109C16.8576 11.0795 15.4587 10.5 14 10.5V9.5Z" fill="black"/>
</svg>
